<?xml version="1.0" encoding="utf-8"?>
<!-- Generator: Adobe Illustrator 25.4.1, SVG Export Plug-In . SVG Version: 6.00 Build 0)  -->
<svg version="1.1" id="Ebene_1" xmlns="http://www.w3.org/2000/svg" xmlns:xlink="http://www.w3.org/1999/xlink" x="0px" y="0px"
	 viewBox="0 0 339 389" style="enable-background:new 0 0 339 389;" xml:space="preserve">
<style type="text/css">
	.st0{fill:none;stroke:#000000;stroke-width:5.3309;stroke-linecap:round;}
	.st1{fill:none;stroke:#000000;stroke-width:1.777;stroke-linecap:round;}
</style>
<path class="st0" d="M103,118.3c-21.4,0-57.3-6.3-57.3,24.3c0,5.2-0.5,9.6,1.8,14c2.6,4.9,6.9,7.1,10,11c4.1,5.1,16.9,13.2,23.5,14
	c4.6,0.5,8.8,2.9,14,2.9c7.2,0,10.8-0.1,16.8-3.3c9.7-5.1,11.6-18.1,19.8-24.7c4.6-3.7,3.3-26.3,2.1-31.6c-2-9.1-22.4-8.1-29.3-8.1"
	/>
<path class="st0" d="M136.8,133c3.6-0.7,22.1-4.6,22.1,1.5"/>
<path class="st0" d="M161.8,137.4c-3,15.8,2.1,24.3,12.4,34.6c7.5,7.5,16.4,6.5,26.5,6.5c12.2,0,19.3,0,28.7-8.8
	c6.7-6.3,7.8-15.5,11.4-23.5c1.7-3.8,1.8-12.8,1.8-16.9c0-6.9-1.2-7.3-6.6-10.3c-8.4-4.7-17.9-5.1-27.9-5.1c-10,0-18.4,0.9-27.2,5.6
	c-7.6,4-12.7,10.7-19.1,15"/>
<path class="st0" d="M242.6,127.1c12.2,2.4,19.4,5.1,29.4,11.8"/>
<path class="st0" d="M53,168.3c0,29.1,13.4,51.2,23.2,77.6c5.2,14,17.9,23.8,26.8,34.9c4.3,5.3,13.2,4.9,18.4,8.9
	c3.6,2.8,11.5,5.7,14,8.7c2.9,3.6,16.6,6.6,21.4,6.6c8.6,0,19.2,1.8,27.1-1.8c7.2-3.3,15.7-7.8,21.7-13.2
	c4.1-3.7,10.1-10.6,15.4-12.6c13.8-5.3,22.8-20.1,27.6-33.3c6.7-18.5,12.4-39,16.2-58.8c1.6-8.5,3-16.6,4.3-25.1
	c1.1-7.1,3-14.4,3-21.3"/>
<path class="st0" d="M58.9,118.3C64.9,104.2,81,95.5,95,90.4c6.3-2.3,11.6-6.6,17.6-9.6c5.9-3,11.1-3.7,17.2-5.4
	c11-3.1,24.3-2.6,35.8-2.6c11.2,0,23-2.9,34.5-2.9c14.1,0,37.6,2.8,45.6,16.8c1.9,3.3,6.4,5.9,8.5,9.6c2.5,4.6,4.4,8.2,6.5,13.2
	c3.7,8.8,4.1,17.6,7,26.5"/>
<path class="st0" d="M94.2,277.1c0,17.5,0,35.1,0,52.6c0,9.1,1.4,19.9-1.1,28.6c-1.7,5.6,2.1,14.6-1.5,19.1
	c-1.4,1.7-0.3,6.9-0.3,9.1c0,5.4-3.6-10.2-6.2-14.9c-2.1-3.7-3.2-9.6-6.3-12.7c-0.7-0.7-0.7,7.2-0.7,8.2c0,9.4-10.8,6.1-14.4-0.3
	c-3.8-6.9-2.9,21.3-10.6,7.8c-2.1-3.6-10.2-31.6-16.2-18.9c-2.6,5.6-2.9,12.4-5.9,17.6c-2.1,3.7-7-11.4-7.4-12.4
	c-2.4-7.2-2.7-8.5-8.9-2.9c-1.3,1.1-12.5,11.6-14.3,10c-1.6-1.4-0.3-10.2-0.3-12.2c0-8.4-1.1-17.5,0.3-25.7
	c3-17.7,10.8-34.5,14.4-52.1c5.6-27.5,11.3-55.4,15.8-83.1c1.2-7.3,1.8-14.2,1.8-21.7c0-16.6,2.6-33.1,2.9-49.7
	c0.3-18.5-3.7-42,17.6-49.2"/>
<path class="st0" d="M44.2,88.9c0-12.1-1.8-26.1,1.5-37.9c2.9-10.7,9.1-16.7,16.8-23.8c7.6-7.1,18.8-8.9,27.6-13.9
	c11.1-6.2,20.5-11.1,33.5-11.1c19.5,0,39,0.4,58.5,0c24.6-0.5,51.9-6.9,74.5,5.1c9.6,5.1,19.9,16.1,21.3,27.4
	c2.8,22.5,11.2,44.3,14.8,66.7c2.4,15.3,4.4,29.2,4.4,44.9c0,14.4,1.6,30.9,5.2,44.8c9.2,35.6,11.8,71.3,16.3,107.6
	c1.9,15.3,6.5,31.2,6.5,46.7c0,2.6,3.1,3.3,4.3,6c1.8,4,2.6,8.4,4.5,12.4c1.6,3.4,2.4,14,5.1,16.2c1.7,1.3-20.4,5.2-23.1,5.6
	c-8.8,1.1-18.2,2.8-22.9-5.6c-5-9-3.3,2.9-3.3,8c0,4.8-15.9-8.5-19.4-9.8c-1.5-0.5-5-3.8-6.7-3.4c-1,0.2-0.3,9.9-0.3,11
	c0,7.1-5.6-0.6-8.2-1.3c-5.5-1.6-9.2,2.9-13.9,2.9c-24.2,0-47.8,3.9-71.7-3.3c-16.5-4.9-28.7-17.5-45.9-20.6
	c-12.3-2.2-24.3-4.1-36.8-4.1"/>
<path class="st0" d="M248.5,257.9c0,30.6-1.5,61.3-1.5,91.8c0,12-1.5,24-1.5,36.1"/>
<path class="st0" d="M126.5,172.7c0,4.4-3.8,20.3-0.3,23.8c3.9,3.9,9.6,2.6,15,2.6"/>
<path class="st0" d="M173.5,187.4c-4.5,1.9-20.6,14.8-20.6,4.4"/>
<path class="st0" d="M102.8,134.8c-0.3,1.3-3.2,9.7-0.4,9.7c3.7,0,6.6-1.5,10.3-1.5c0.6,0,3.1-0.2,3.5-0.6c1.3-1.3-3-5.8-3.9-6.6
	c-1.1-1-3.7-1.7-5.2-1.5c-2.3,0.3-2.4,2.5-2.4,4.3c0,4.4,9.2,7.2,9.2,2.2c0-5.3-13.1-5.3-13.1,1.1c0,3.6,0.9,5,4.3,6.6
	c2.5,1.1,6.6,0.5,8.5-1.4c2.1-2.1,1.3-5-0.2-7.3c-2-3-4-3.1-7.3-3.1"/>
<path class="st0" d="M198.1,130.4c-1.5,1-7,6.6-3.4,8.6c1.4,0.8,6,1.3,7.4,0.2c1.6-1.3,1.3-2.1,1.9-4.5c0.4-1.7,0.8-3.5-0.6-4.8
	c-2.7-2.7-9.2-2.4-9.2,2.2c0,5.1,0,8,5.8,8c3.1,0,6.5-5.1,3.6-7.5c-2.7-2.2-7.5-2.7-7.5,1.7c0,2.3,0.1,2.4,1.9,3.6
	c1.9,1.2,2-2.6,0.5-3.1"/>
<path class="st0" d="M84.5,144.1c7.1-5.4,13-12.9,22.5-12.9c3.4,0,7.4,2.2,9.9,4.5c1.6,1.5,4.9,4.5,7.1,4.5"/>
<path class="st0" d="M175.1,138.3c2.8-2.1,5.9-4.5,9.1-6.1c2.1-1,4.7-1.4,6.5-2.9c3.3-2.8,8.4-5.5,12.6-2.9c2.9,1.8,6,8.1,9.7,8.1
	c3.2,0,7.7,1,10.7,1.9"/>
<path class="st1" d="M116.3,229c3.6-2.7,8-3.8,12.2-5c3.7-1,7.1-1.3,10.9-1.3c1.5,0,3.1,0,4.6,0c1.4,0,2.7,0.7,4,0.7
	c3.1,0,6,0.3,9.2-0.5c2.8-0.7,6.4-0.2,9.3-0.2c4,0,8,0.3,12,0.3c3.3,0,6.5,0.3,9.8,0.3c1.9,0,3.6-0.2,5.5-0.6c0.9-0.2,4-0.3,4.4-1.1
	"/>
<path class="st1" d="M130.2,216.8c2.9,0,5.7-0.7,8.6-0.7c2,0,4-0.7,5.9-0.7c1.6,0,3,0.4,4.5,0.7c0.6,0.1,1.1,1.1,1.6,0.3
	c0.4-0.7,1.1-1.1,1.7-1.5c2.5-1.4,6.4-2.4,9.3-1.3c3.5,1.4,8.6,1.2,12.4,1.2"/>
<path class="st1" d="M116,230.4c4,2.4,8.5,3.9,12.4,6.3c3,1.8,6.6,3.4,10.1,3.4c6.7,0,13.4,0.6,19.9,0.6c3.7,0,6-0.7,9.4-1.7
	c3.7-1.1,6.9-4.1,10.8-4.6c3.1-0.4,6.1-2.2,8.8-3.7c2.4-1.3,6.2-5.4,8.8-5.4"/>
<path class="st1" d="M136.6,253.8c3,0.1,7,0.9,10,1.7c2.6,0.7,5.5,0.5,8.3,0.5c2.8,0,5.5-1.1,8.3-1.7c2.6-0.6,7.3-0.9,9.4-2.3"/>
</svg>
